<svg xmlns="http://www.w3.org/2000/svg" viewBox="0 0 64 64" enable-background="new 0 0 64 64"><path fill="#f15744" d="m58.18 37.875l-3.394-1.584c-1.055-.318-2.107-1.381-2.344-2.363l-2.183-10.07c-.237-.983-1.337-1.86-2.45-1.86h-21.958c-1.115 0-2.434.962-2.93 1.86 0 0-3.274 6.489-4.336 8.359-.507.893-2.722 2.772-3.759 3.142-2.116.754-6.427 3.426-6.427 3.426-1.055.319-2.231 1.769-2.48 2.748l.558 1.931-1.58 1.79-1.022 3.721h56.25v-8.372c-.001-1.01-.891-2.412-1.945-2.73"/><path fill="#b2c1c0" d="m62 51.16c0-1.403-.482-2.188-1.526-2.188h-56.948c-1.044 0-1.526.785-1.526 2.188 0 .306.145 2.02.204 2.317.238 1.194 1.228 1.072 2.271 1.072h55.05c1.043 0 2.032.122 2.271-1.072.058-.297.203-2.01.203-2.317"/><g fill="#3e4347"><path d="m37.625 33.989c0 .569.408 1.034.908 1.034h9.599c.499 0 .825-.455.725-1.012l-1.32-8.208c-.097-.558-.586-1.014-1.085-1.014h-7.918c-.5 0-.908.465-.908 1.034v8.166z"/><path d="m34.813 25.825c0-.569-.418-1.034-.929-1.034h-6.978c-.51 0-1.125.411-1.364.912l-3.753 8.418c-.246.496-.032.903.478.903h11.617c.511 0 .929-.465.929-1.034v-8.165"/></g><path fill="#fff" d="m4.897 45.26h2.834c.451 0 .955-.419 1.119-.931l.598-1.86c.164-.512-.071-.93-.523-.93h-3.01l-1.022 3.721"/><path fill="#ffe62e" d="m60.13 41.535h-2.309c-.368 0-.778.418-.912.93 0 0-.366 1.396-.487 1.86-.134.512.059.931.427.931h3.281v-3.721"/></svg>
