<svg viewBox="0 0 58 40" xmlns="http://www.w3.org/2000/svg">
    <g id="Page-1" stroke="none" stroke-width="1" fill="none" fill-rule="evenodd">
        <g id="fish">
            <g>
                <path d="M54.704,19.463 C54.704,15.928 59.645,8.05 57.309,5.632 C54.77,3.003 49.018,14.172 46.096,14.172 C42.612,14.172 40.496,9.849 38.758,8.048 C37.373,6.612 41.317,1.083 39.574,0.671 C32.054,-1.102 31.033,3.224 26.982,2.148 C23.796,1.302 20.472,0.812 17.234,0.812 C5.259,0.812 2.912,9.431 0.866,17.393 C0.529,18.709 12.58,29.006 12.58,29.006 C12.58,29.006 3.352,23.805 3.619,24.986 C5.094,31.547 11.352,35.802 18.306,37.394 C20.329,37.859 22.413,38.109 24.456,38.109 C37.272,38.109 39.255,28.244 46.163,27.029 C50.325,26.299 54.911,34.406 57.309,31.922 C59.813,29.33 54.704,23.547 54.704,19.459" id="Shape" fill="#FF8888"></path>
                <g id="Group" fill="#FFC7C7">
                    <path d="M44.1,38.51 C42.942,39.707 40.489,41.176 37.881,38.475 C35.272,35.776 32.498,30.961 33.656,29.764 C34.812,28.567 39.463,31.438 42.07,34.137 C44.68,36.836 45.258,37.311 44.1,38.51" id="Shape"></path>
                    <path d="M29.417,16.51 C30.6458336,16.51 31.642,15.0549254 31.642,13.26 C31.642,11.4650746 30.6458336,10.01 29.417,10.01 C28.1881664,10.01 27.192,11.4650746 27.192,13.26 C27.192,15.0549254 28.1881664,16.51 29.417,16.51 Z" id="Oval"></path>
                    <path d="M33.599,19.713 C32.911,19.713 32.353,18.578 32.353,17.18 C32.353,15.778 32.912,14.643 33.599,14.643 C34.284,14.643 34.843,15.777 34.843,17.18 C34.843,18.578 34.284,19.713 33.599,19.713 Z" id="Shape"></path>
                    <ellipse id="Oval" cx="35.881" cy="13.973" rx="0.622" ry="1.688"></ellipse>
                    <path d="M17.235,0.8 C5.26,0.8 2.914,9.419 0.868,17.381 C0.529,18.697 12.58,28.994 12.58,28.994 C12.58,28.994 3.352,23.793 3.619,24.974 C5.094,31.535 11.352,35.79 18.306,37.384 C26.386,21.443 23.37,7.274 17.235,0.798" id="Shape"></path>
                </g>
                <ellipse id="Oval" fill="#FCFCFA" cx="14.737" cy="16.512" rx="7.125" ry="7.375"></ellipse>
                <ellipse id="Oval" fill="#29251C" cx="14.737" cy="16.512" rx="4.899" ry="5.07"></ellipse>
            </g>
        </g>
    </g>
</svg>
