<?xml version="1.0" encoding="UTF-8" standalone="no"?>
<svg width="60px" height="60px" viewBox="0 0 60 60" version="1.1" xmlns="http://www.w3.org/2000/svg" xmlns:xlink="http://www.w3.org/1999/xlink">
    <!-- Generator: Sketch 3.6.1 (26313) - http://www.bohemiancoding.com/sketch -->
    <title>monkey</title>
    <desc>Created with Sketch.</desc>
    <defs></defs>
    <g id="Page-1" stroke="none" stroke-width="1" fill="none" fill-rule="evenodd">
        <g id="monkey" transform="translate(-1.000000, 0.000000)">
            <ellipse id="Oval" fill="#89664C" cx="52.748" cy="26.969" rx="8.251" ry="8.231"></ellipse>
            <ellipse id="Oval" fill="#FFC5D3" cx="52.748" cy="26.969" rx="5.372" ry="5.36"></ellipse>
            <ellipse id="Oval" fill="#89664C" cx="9.249" cy="26.969" rx="8.25" ry="8.231"></ellipse>
            <ellipse id="Oval" fill="#FFC5D3" cx="9.249" cy="26.969" rx="5.372" ry="5.36"></ellipse>
            <g id="Group" transform="translate(7.000000, 0.000000)" fill="#89664C">
                <path d="M35.38,4.781 C36.525,4.177 37.265,3.873 37.265,3.873 C34.028,2.735 31.215,2.07 28.789,1.768 C30.067,0.806 30.921,0.439 30.921,0.439 C10.504,-2.439 0.781,9.395 0.781,19.896 L47.221,19.898 C46.523,12.586 42.44,7.582 35.378,4.778" id="Shape"></path>
                <path d="M47.32,21.568 C47.32,11.861 36.878,3.994 23.996,3.994 C11.114,3.994 0.671,11.861 0.671,21.568 C0.671,23.839 1.263,26.004 2.304,27.996 C1.263,29.99 0.671,32.153 0.671,34.426 C0.671,44.132 11.114,52 23.996,52 C36.878,52 47.32,44.132 47.32,34.426 C47.32,32.154 46.729,29.99 45.687,27.996 C46.729,26.004 47.32,23.84 47.32,21.568" id="Shape"></path>
            </g>
            <path d="M51.02,22.2 C51.02,5.266 31,16.054 31,16.054 C31,16.054 10.98,5.266 10.98,22.2 C10.98,26.938 13.897,31.162 18.453,33.919 C17.125,35.576 16.347,37.51 16.347,39.585 C16.347,45.667 22.909,50.595 31.001,50.595 C39.096,50.595 45.656,45.667 45.656,39.585 C45.656,37.51 44.878,35.575 43.549,33.919 C48.104,31.162 51.022,26.938 51.022,22.2" id="Shape" fill="#E0AC7E"></path>
            <g id="Group" transform="translate(27.000000, 30.000000)" fill="#3B302A">
                <path d="M7.15,2.746 C7.15,3.884 6.703,4.803 6.15,4.803 C5.597,4.803 5.15,3.884 5.15,2.746 C5.15,1.613 5.597,0.687 6.15,0.687 C6.703,0.687 7.15,1.613 7.15,2.746" id="Shape"></path>
                <path d="M2.854,2.746 C2.854,3.884 2.407,4.803 1.854,4.803 C1.302,4.803 0.855,3.884 0.855,2.746 C0.855,1.613 1.302,0.687 1.854,0.687 C2.407,0.688 2.854,1.613 2.854,2.746" id="Shape"></path>
            </g>
            <path d="M35.832,24.23 C35.832,24.23 36.186,20.432 39.125,19.21 C42.439,17.836 44.699,21.193 45.313,23.113 C46.218,25.943 45.082,29.042 44.745,29.757 C44.522,30.227 42.073,32.451 36.555,30.346 C36.555,30.347 35.179,27.196 35.832,24.226" id="Shape" fill="#FFFFFF"></path>
            <ellipse id="Oval" fill="#3B302A" cx="39.683" cy="25.746" rx="3" ry="4.115"></ellipse>
            <path d="M26.17,24.23 C26.17,24.23 25.816,20.432 22.879,19.21 C19.565,17.836 17.303,21.192 16.69,23.113 C15.785,25.943 16.92,29.042 17.258,29.757 C17.481,30.227 19.93,32.451 25.449,30.346 C25.449,30.347 26.823,27.196 26.17,24.226" id="Shape" fill="#FFFFFF"></path>
            <ellipse id="Oval" fill="#3B302A" cx="22.319" cy="25.746" rx="3" ry="4.115"></ellipse>
            <path d="M13.896,46 L5.57,59.998 L18.52,59.998 C19.347,53 22.52,52.404 22.52,52.404 L13.895,46" id="Shape" fill="#89664C"></path>
            <path d="M19.224,37.34 C19.224,37.34 24.104,32.85 28.717,33.395 C30.995,33.665 21.635,40.975 21.635,40.975 C21.635,40.975 31.347,32.745 33.357,35.329 C35.181,37.675 24.431,45.147 24.431,45.147 C24.431,45.147 34.388,37.097 34.081,40.592 C33.742,44.457 26.203,53.455 21.598,54.371 C14.957,55.693 9.808,51.463 13.284,36.865 C15.023,29.553 16.813,37.721 19.224,37.34" id="Shape" fill="#FFD6BB"></path>
            <path d="M47.34,44.2 L57.957,59.997 L43.985,59.997 C43.95,56.347 41.805,53.407 41.805,53.407 L47.34,44.2" id="Shape" fill="#89664C"></path>
            <path d="M37.23,37.682 C37.23,37.682 31.008,35.391 26.951,37.653 C24.951,38.772 36.387,41.962 36.387,41.962 C36.387,41.962 24.267,38.054 23.398,41.208 C22.606,44.073 35.392,46.886 35.392,46.886 C35.392,46.886 23.117,43.234 24.735,46.353 C26.52,49.796 36.92,55.244 41.526,54.335 C48.17,53.025 39.605,37.117 37.23,37.682" id="Shape" fill="#DDB199"></path>
            <path d="M38.556,37.682 C38.556,37.682 32.334,35.391 28.277,37.653 C26.277,38.772 37.713,41.962 37.713,41.962 C37.713,41.962 25.593,38.054 24.724,41.208 C23.932,44.073 36.718,46.886 36.718,46.886 C36.718,46.886 24.443,43.234 26.061,46.353 C27.846,49.796 38.246,55.244 42.852,54.335 C49.497,53.026 52.645,47.153 43.87,34.981 C39.472,28.883 40.931,37.117 38.556,37.682" id="Shape" fill="#FFD6BB"></path>
        </g>
    </g>
</svg>