<svg viewBox="0 0 640 73" xmlns="http://www.w3.org/2000/svg">
    <g stroke="none" fill="none" fill-rule="evenodd">
        <path fill="#6792AB" d="M570.857319,10.3560789 C567.415734,7.38388425 564.388798,3.8213931 561.72468,0 L541.603849,13.6907363 C525.567308,24.6163995 505.539772,23.3840262 490.643516,10.4389275 C487.098269,7.42530856 484.174995,3.9249539 481.510877,0.082848631 L461.400412,13.773585 C445.394969,24.6992481 425.336336,23.4254505 410.440079,10.501064 C406.905198,7.50815719 403.878262,4.00780253 401.317806,0.165697262 L381.207341,13.7942971 C365.191533,24.7199603 345.143265,23.4875869 330.13298,10.5528444 C326.712127,7.51851327 323.674825,4.03887076 321.114369,0.196765499 L300.900242,13.8875018 C284.998462,24.813165 264.950194,23.5393673 249.888078,10.5942687 C246.50869,7.62207406 243.398825,4.12171939 240.80727,0.258901972 L220.696805,13.9496383 C204.598067,24.8753015 184.632729,23.6222159 169.653542,10.7081856 C166.201591,7.67385446 163.081359,4.15278764 160.552002,0.248545893 L140.483002,13.9392822 C124.39463,24.8649454 104.387827,23.6325721 89.4604713,10.6874734 C85.9359568,7.67385446 82.8675559,4.21492411 80.3070998,0.331394524 L60.2173673,14.042843 C44.1911926,24.9685062 24.1429249,23.7154207 9.14300592,10.7910342 C5.69105497,7.77741524 2.664119,4.25634842 7.01310255e-07,0.434955313 L0,72.9999994 L640,73 L640,1.46020713 L621.983511,13.6493119 C605.905505,24.5749752 585.867604,23.2804653 570.857319,10.3560789 Z"></path>
    </g>
</svg>
