<?xml version="1.0" encoding="UTF-8" standalone="no"?>
<svg width="348px" height="94px" viewBox="0 0 348 94" version="1.1" xmlns="http://www.w3.org/2000/svg" xmlns:xlink="http://www.w3.org/1999/xlink" preserveAspectRatio="none">
    <!-- Generator: Sketch 3.6.1 (26313) - http://www.bohemiancoding.com/sketch -->
    <title>svg_14</title>
    <desc>Created with Sketch.</desc>
    <defs></defs>
    <g id="Page-1" stroke="none" stroke-width="1" fill="none" fill-rule="evenodd">
        <path d="M347.196167,93.2765961 C347.196167,93.2765961 307.938293,93.276596 289.184326,93.276596 L173.06366,93.276596 L56.846985,93.276596 C39.258942,93.276596 0,93.2765961 0,93.2765961 L0,3.630172 C12.632935,22.007705 34.399902,34.617294 56.846985,34.617294 C81.237183,34.617294 103.003052,21.475723 115.344483,0.641037 C127.782014,20.834702 149.257447,34.617294 173.06366,34.617294 C197.162506,34.617294 218.929444,21.475723 231.269745,0.85466 C243.708313,21.048355 265.377075,34.617294 289.184326,34.617294 C313.477417,34.617294 334.952942,20.834701 347.196167,0 L347.196167,93.2765961 Z" id="svg_14" fill="#0F87CE"></path>
    </g>
</svg>
