<?xml version="1.0" encoding="UTF-8" standalone="no"?>
<svg width="16px" height="16px" viewBox="0 0 16 16" version="1.1" xmlns="http://www.w3.org/2000/svg" xmlns:xlink="http://www.w3.org/1999/xlink">
    <!-- Generator: Sketch 3.6.1 (26313) - http://www.bohemiancoding.com/sketch -->
    <title>wheel</title>
    <desc>Created with Sketch.</desc>
    <defs></defs>
    <g id="Page-1" stroke="none" stroke-width="1" fill="none" fill-rule="evenodd">
        <g id="wheel">
            <ellipse id="Oval" fill="#3E4347" cx="8" cy="8" rx="8" ry="8"></ellipse>
            <path d="M8.00155553,13 C5.23892979,13 3,10.7594315 3,7.99947748 C3,5.2405685 5.23996682,3 8.00155553,3 C10.7621072,3 13,5.2405685 13,7.99947748 C13,10.7604765 10.7600332,13 8.00155553,13 Z" id="Shape" fill="#E8E8E8"></path>
            <g id="Group" transform="translate(4.000000, 4.400000)" fill="#3E4347">
                <path d="M5.2,1.27 C4.997,1.908 4.484,2.43 4.062,2.43 C3.64,2.43 3.127,1.908 2.922,1.27 L2.902,1.198 C2.697,0.56 3.22,0.038 4.062,0.038 C4.906,0.038 5.429,0.56 5.224,1.198 L5.201,1.27 M2.575,1.47 C3.029,1.965 3.229,2.667 3.018,3.03 C2.808,3.39 2.098,3.57 1.438,3.43 L1.363,3.41 C0.703,3.266 0.51,2.557 0.933,1.832 C1.353,1.107 2.069,0.922 2.523,1.415 L2.575,1.47 M1.438,3.827 C2.098,3.687 2.808,3.867 3.018,4.227 C3.228,4.587 3.028,5.29 2.578,5.787 L2.524,5.841 C2.069,6.337 1.354,6.148 0.934,5.424 C0.511,4.698 0.704,3.99 1.364,3.847 L1.438,3.827 M2.923,5.984 C3.13,5.346 3.641,4.824 4.063,4.824 C4.485,4.824 4.997,5.346 5.201,5.984 L5.224,6.057 C5.429,6.695 4.906,7.215 4.064,7.215 C3.22,7.215 2.697,6.695 2.902,6.057 L2.925,5.984 M5.55,5.785 C5.096,5.29 4.896,4.589 5.107,4.225 C5.317,3.865 6.027,3.685 6.687,3.825 L6.763,3.845 C7.423,3.988 7.615,4.698 7.193,5.423 C6.773,6.147 6.056,6.335 5.603,5.839 L5.55,5.784 M6.688,3.43 C6.028,3.573 5.318,3.393 5.108,3.03 C4.898,2.67 5.094,1.968 5.548,1.472 L5.603,1.418 C6.057,0.922 6.773,1.11 7.193,1.835 C7.615,2.561 7.423,3.269 6.763,3.413 L6.688,3.43" id="Shape"></path>
            </g>
            <g id="Group" transform="translate(3.500000, 4.000000)" fill="#E8E8E8">
                <path d="M6.9255,7.07022222 L5.9841,7.6 L2.1861,1.15555556 L3.1275,0.624888889 L6.9255,7.07022222 Z" id="Shape"></path>
                <path d="M0.7596,3.58222222 L8.3538,3.58222222 L8.3538,4.64533333 L0.7596,4.64533333 L0.7596,3.58222222 Z" id="Shape"></path>
                <path d="M5.985,0.624888889 L6.9255,1.15555556 L3.1275,7.6 L2.187,7.07022222 L5.985,0.624888889 Z" id="Shape"></path>
            </g>
        </g>
    </g>
</svg>